
<svg width="612px" height="176px" viewBox="0 0 612 176" version="1.1" xmlns="http://www.w3.org/2000/svg" xmlns:xlink="http://www.w3.org/1999/xlink">
    <!-- Generator: Sketch 49.3 (51167) - http://www.bohemiancoding.com/sketch -->
    <desc>Created with Sketch.</desc>
    <defs></defs>
    <g id="Page-1" stroke="none" stroke-width="1" fill="none" fill-rule="evenodd">
        <g id="Artboard">
            <g id="webpack" fill-rule="nonzero">
                <polygon id="Shape" fill="#FFFFFF" points="78 0 156 43.9949754 156 132.005025 78 176 0 132.005025 0 43.9949754"></polygon>
                <path d="M141.81261,128.379118 L80.6847378,163 L80.6847378,136.041445 L118.771951,115.060308 L141.81261,128.379118 Z M14.1873895,128.379118 L75.3152622,163 L75.3152622,136.041445 L37.2080141,115.060308 L14.1873895,128.379118 Z M10,124.588071 L10,52.1971307 L32.3594579,65.13483 L32.3594579,111.67043 L10,124.588071 Z M12.6246317,47.5034538 L75.3152622,12 L75.3152622,38.0559245 L35.1443724,60.1803932 L34.8238067,60.3609192 L12.6246317,47.5034538 Z" id="Shape" fill="#8ED6FB"></path>
                <path d="M74.8,130 L37,109.341003 L37,68.4433962 L74.8,90.1233318 L74.8,130 Z M77.5,43 L115.441045,63.719052 L77.5,85.4790612 L39.5589552,63.719052 L77.5,43 Z" id="Shape" fill="#1C78C0"></path>
                <path d="M234.120446,115.861362 L250.681784,115.861362 L267.564312,59.5455291 L251.424535,59.5455291 L241.427509,99.5012305 L230.76803,59.5455291 L216.796283,59.5455291 L206.036431,99.5012305 L196.139777,59.5455291 L180,59.5455291 L196.782156,115.861362 L213.343494,115.861362 L223.782156,79.7846596 L234.120446,115.861362 Z M328.89145,115.861362 L342.883271,115.861362 L342.883271,110.052912 C344.388848,111.88187 349.989591,117.268253 359.565056,117.268253 C375.704833,117.268253 387.107063,105.108696 387.107063,87.7637408 C387.107063,70.3182937 376.56803,58.1587367 360.428253,58.1587367 C350.752416,58.1587367 345.151673,63.5451189 343.746468,65.4745693 L343.746468,38 L328.911524,38 L328.911524,115.861362 L328.89145,115.861362 Z M343.304833,87.864233 C343.304833,77.3125513 349.547955,71.2830189 357.718216,71.2830189 C366.330112,71.2830189 372.131599,78.076292 372.131599,87.864233 C372.131599,97.8732568 366.109294,104.123872 357.718216,104.123872 C348.684758,104.123872 343.304833,96.7879409 343.304833,87.864233 Z M392.888476,136 L407.72342,136 L407.72342,110.032814 C409.128625,111.861772 414.709294,117.248154 424.405204,117.248154 C440.544981,117.248154 451.084015,105.088597 451.084015,87.6431501 C451.084015,70.4187859 439.681784,58.1386382 423.542007,58.1386382 C413.966543,58.1386382 408.365799,63.5250205 406.860223,65.4544709 L406.860223,59.5254307 L392.868401,59.5254307 L392.868401,136 L392.888476,136 Z M407.301859,87.5426579 C407.301859,78.5988515 412.681784,71.2830189 421.715242,71.2830189 C430.10632,71.2830189 436.128625,77.5336341 436.128625,87.5426579 C436.128625,97.3506973 430.327138,104.123872 421.715242,104.123872 C413.544981,104.123872 407.301859,98.0943396 407.301859,87.5426579 Z M538.648327,104.123872 C529.29368,104.123872 522.628996,97.3305989 522.628996,87.7637408 C522.628996,78.7194422 528.550929,71.2830189 538.126394,71.2830189 C544.469888,71.2830189 548.785874,74.3982773 551.255019,76.6694011 L555.450558,64.1681706 C551.797026,61.3744873 545.975465,58.1386382 537.704833,58.1386382 C520.601487,58.1386382 507.794052,70.740361 507.794052,87.864233 C507.794052,104.988105 520.280297,117.268253 537.805204,117.268253 C545.975465,117.268253 552.118216,113.831419 555.330112,111.23872 L551.35539,99.0791632 C548.866171,101.109106 544.349442,104.123872 538.648327,104.123872 Z M560.910781,115.861362 L575.745725,115.861362 L575.745725,86.7789171 L594.575465,115.861362 L612,115.861362 L590.701115,85.0504512 L610.494424,59.5254307 L593.812639,59.5254307 L575.745725,83.221493 L575.745725,38 L560.910781,38 L560.910781,115.861362 Z" id="Shape" fill="#1A1C1C"></path>
            </g>
            <rect id="Rectangle" fill="#1A1C1C" x="273" y="105" width="45" height="12"></rect>
            <rect id="Rectangle" fill="#1A1C1C" x="459" y="105" width="45" height="12"></rect>
        </g>
    </g>
</svg>